<svg width="221" height="99" viewBox="0 0 221 99" fill="none" xmlns="http://www.w3.org/2000/svg">
<ellipse cx="52.9805" cy="43.9072" rx="44.0195" ry="43.9072" fill="white"/>
<path d="M8.61379 88.2565L18.477 64.8306L33.3965 82.611L8.61379 88.2565Z" fill="white"/>
<ellipse cx="53.1703" cy="44.117" rx="37.1889" ry="37.094" fill="url(#paint0_linear_913_554)"/>
<path d="M18.6913 79.568L24.836 64.9738L34.1308 76.0509L18.6913 79.568Z" fill="url(#paint1_linear_913_554)"/>
<circle cx="34.2911" cy="45.4449" r="6.54601" fill="white"/>
<circle cx="53.2652" cy="45.4449" r="6.54601" fill="white"/>
<circle cx="72.2389" cy="45.4449" r="6.54601" fill="white"/>
<path d="M114.009 34.8182H118.75L123.757 47.0341H123.97L128.977 34.8182H133.718V53H129.989V41.1658H129.838L125.133 52.9112H122.594L117.889 41.1214H117.738V53H114.009V34.8182ZM139.149 58.1136C138.669 58.1136 138.22 58.0752 137.799 57.9982C137.385 57.9272 137.042 57.8355 136.77 57.723L137.622 54.8999C138.066 55.036 138.465 55.11 138.82 55.1218C139.181 55.1336 139.492 55.0508 139.752 54.8732C140.019 54.6957 140.235 54.3938 140.401 53.9677L140.623 53.3906L135.731 39.3636H139.708L142.531 49.3778H142.673L145.523 39.3636H149.527L144.227 54.4737C143.972 55.2076 143.626 55.8468 143.188 56.3913C142.756 56.9418 142.209 57.3649 141.546 57.6609C140.883 57.9627 140.084 58.1136 139.149 58.1136ZM167.576 41.1836H163.687C163.616 40.6805 163.471 40.2337 163.252 39.843C163.033 39.4465 162.752 39.1091 162.409 38.831C162.065 38.5528 161.669 38.3397 161.219 38.1918C160.775 38.0438 160.293 37.9698 159.772 37.9698C158.831 37.9698 158.011 38.2036 157.313 38.6712C156.614 39.1328 156.073 39.8075 155.688 40.6953C155.304 41.5772 155.111 42.6484 155.111 43.9091C155.111 45.2053 155.304 46.2943 155.688 47.1761C156.079 48.058 156.623 48.7238 157.322 49.1737C158.02 49.6235 158.828 49.8484 159.745 49.8484C160.26 49.8484 160.737 49.7803 161.175 49.6442C161.619 49.508 162.012 49.3098 162.355 49.0494C162.699 48.783 162.983 48.4605 163.208 48.0817C163.439 47.7029 163.598 47.2708 163.687 46.7855L167.576 46.8033C167.475 47.6378 167.223 48.4427 166.821 49.218C166.424 49.9875 165.889 50.677 165.214 51.2866C164.545 51.8903 163.746 52.3697 162.817 52.7248C161.894 53.074 160.849 53.2486 159.683 53.2486C158.062 53.2486 156.612 52.8816 155.333 52.1477C154.061 51.4138 153.054 50.3514 152.315 48.9606C151.581 47.5697 151.214 45.8859 151.214 43.9091C151.214 41.9264 151.587 40.2396 152.332 38.8487C153.078 37.4579 154.09 36.3984 155.369 35.6705C156.647 34.9366 158.085 34.5696 159.683 34.5696C160.737 34.5696 161.713 34.7176 162.613 35.0135C163.518 35.3094 164.32 35.7415 165.019 36.3097C165.717 36.8719 166.285 37.5614 166.723 38.3782C167.167 39.195 167.451 40.1301 167.576 41.1836ZM174.043 45.1165V53H170.261V34.8182H173.937V41.7695H174.096C174.404 40.9646 174.901 40.3343 175.588 39.8786C176.274 39.4169 177.136 39.1861 178.171 39.1861C179.118 39.1861 179.944 39.3932 180.648 39.8075C181.358 40.2159 181.909 40.8048 182.3 41.5742C182.696 42.3377 182.891 43.2521 182.885 44.3175V53H179.104V44.9922C179.109 44.1518 178.896 43.4978 178.464 43.0302C178.038 42.5626 177.44 42.3288 176.671 42.3288C176.156 42.3288 175.7 42.4383 175.304 42.6573C174.913 42.8763 174.605 43.1959 174.381 43.6161C174.162 44.0304 174.049 44.5305 174.043 45.1165ZM189.75 53.2575C188.88 53.2575 188.105 53.1065 187.424 52.8047C186.744 52.4969 186.205 52.0442 185.809 51.4464C185.418 50.8427 185.223 50.091 185.223 49.1914C185.223 48.4338 185.362 47.7976 185.64 47.2827C185.918 46.7678 186.297 46.3535 186.776 46.0398C187.256 45.7261 187.8 45.4893 188.41 45.3295C189.025 45.1697 189.67 45.0573 190.345 44.9922C191.138 44.9093 191.777 44.8324 192.263 44.7614C192.748 44.6844 193.1 44.572 193.319 44.424C193.538 44.276 193.648 44.0571 193.648 43.767V43.7138C193.648 43.1515 193.47 42.7165 193.115 42.4087C192.766 42.101 192.269 41.9471 191.623 41.9471C190.943 41.9471 190.401 42.098 189.999 42.3999C189.596 42.6958 189.33 43.0687 189.2 43.5185L185.702 43.2344C185.88 42.4058 186.229 41.6896 186.75 41.0859C187.27 40.4763 187.942 40.0088 188.765 39.6832C189.593 39.3518 190.552 39.1861 191.641 39.1861C192.399 39.1861 193.124 39.2749 193.816 39.4524C194.515 39.63 195.133 39.9052 195.672 40.2781C196.216 40.6509 196.645 41.1303 196.959 41.7163C197.273 42.2963 197.43 42.9917 197.43 43.8026V53H193.843V51.109H193.736C193.517 51.5352 193.224 51.911 192.858 52.2365C192.491 52.5561 192.05 52.8076 191.535 52.9911C191.02 53.1687 190.425 53.2575 189.75 53.2575ZM190.833 50.6474C191.39 50.6474 191.881 50.5379 192.307 50.3189C192.733 50.094 193.068 49.7921 193.31 49.4134C193.553 49.0346 193.674 48.6055 193.674 48.1261V46.679C193.556 46.7559 193.393 46.8269 193.186 46.892C192.985 46.9512 192.757 47.0075 192.502 47.0607C192.248 47.1081 191.993 47.1525 191.739 47.1939C191.484 47.2294 191.254 47.262 191.046 47.2915C190.603 47.3567 190.215 47.4602 189.883 47.6023C189.552 47.7443 189.295 47.9367 189.111 48.1793C188.928 48.4161 188.836 48.712 188.836 49.0671C188.836 49.582 189.022 49.9756 189.395 50.2479C189.774 50.5142 190.253 50.6474 190.833 50.6474ZM207.617 39.3636V42.2045H199.405V39.3636H207.617ZM201.269 36.0966H205.051V48.8097C205.051 49.1589 205.104 49.4311 205.211 49.6264C205.318 49.8158 205.466 49.949 205.655 50.0259C205.85 50.1029 206.075 50.1413 206.33 50.1413C206.507 50.1413 206.685 50.1265 206.862 50.0969C207.04 50.0614 207.176 50.0348 207.271 50.017L207.866 52.8313C207.676 52.8905 207.41 52.9586 207.066 53.0355C206.723 53.1184 206.306 53.1687 205.815 53.1864C204.903 53.2219 204.104 53.1006 203.418 52.8224C202.737 52.5443 202.207 52.1122 201.829 51.5263C201.45 50.9403 201.263 50.2005 201.269 49.3068V36.0966Z" fill="white"/>
<defs>
<linearGradient id="paint0_linear_913_554" x1="53.1703" y1="7.02295" x2="53.1703" y2="81.211" gradientUnits="userSpaceOnUse">
<stop stop-color="#2858B4"/>
<stop offset="1" stop-color="#68D94A"/>
</linearGradient>
<linearGradient id="paint1_linear_913_554" x1="24.6145" y1="67.5496" x2="34.386" y2="77.0365" gradientUnits="userSpaceOnUse">
<stop stop-color="#5DC15E"/>
<stop offset="1" stop-color="#64D052"/>
</linearGradient>
</defs>
</svg>
